<svg xmlns="http://www.w3.org/2000/svg" width="2666.563" height="2666.563" fill-rule="evenodd" clip-rule="evenodd" image-rendering="optimizeQuality" shape-rendering="geometricPrecision" text-rendering="geometricPrecision" viewBox="0 0 27777 27777" id="turtle">
  <path fill-rule="nonzero" d="M18148 7418c262,151 509,317 742,498 288,-3 570,-77 822,-214 266,-145 498,-360 664,-637 8,-18 18,-35 30,-51 229,-413 273,-880 159,-1305 -250,-935 -1211,-1490 -2146,-1239 -782,209 -1320,928 -1300,1736 8,287 86,569 227,819 272,111 540,242 801,393l1 0 0 0zm-2085 7291c5,-44 20,-88 44,-129 12,-21 25,-40 41,-57 147,-374 163,-777 63,-1148 -263,-982 -1271,-1565 -2254,-1301 -468,125 -868,424 -1118,858 -508,877 -207,2006 674,2514 903,522 2062,188 2550,-737zm788 -98l1418 818c411,-942 493,-1952 283,-2871 -221,-962 -763,-1824 -1586,-2402l-978 1694c838,649 1180,1756 863,2761zm1098 1433l-1395 -805c-353,540 -881,904 -1465,1061 -521,139 -1086,113 -1611,-101l-979 1695c912,423 1930,461 2874,171 1020,-314 1953,-1010 2576,-2021zm-7593 -4793c3,-3 5,-7 7,-10 714,-1129 1771,-1909 2927,-2265 1221,-375 2552,-278 3707,380 17,7 32,17 47,27 1148,671 1898,1775 2183,3021 285,1245 106,2632 -607,3866 -712,1231 -1824,2082 -3044,2457 -1218,375 -2546,278 -3700,-376 -19,-9 -37,-19 -54,-30 -1147,-672 -1897,-1776 -2183,-3022 -285,-1244 -105,-2630 607,-3864l1 -1 -1 0c36,-62 73,-123 110,-183zm793 67l1418 819c332,-361 754,-611 1211,-733 521,-140 1086,-114 1611,101l979 -1695c-912,-423 -1930,-462 -2874,-172 -901,277 -1734,853 -2345,1680zm1023 1391l-1395 -806c-564,1045 -701,2201 -462,3242 220,962 763,1824 1585,2402l978 -1694c-954,-739 -1255,-2060 -706,-3144zm-85 8170c-704,928 -1313,1443 -1774,1611 -301,111 -564,95 -780,-35 -210,-127 -349,-348 -410,-654 -103,-511 21,-1335 423,-2379 -440,-408 -816,-870 -1127,-1373 -321,296 -712,496 -1129,588 -1277,283 -2551,-489 -2890,-1754 -343,-1282 398,-2604 1672,-2979 421,-124 875,-135 1313,-20 99,-1859 889,-3668 2200,-5033 -181,-326 -286,-690 -306,-1062 -24,-456 79,-924 325,-1349l0 -1 0 -1c337,-585 880,-977 1485,-1139 603,-162 1269,-93 1854,245l1 0 1 0c435,251 772,619 983,1063 855,-118 1727,-76 2570,139 -316,-1286 449,-2600 1742,-2946 1304,-350 2646,425 2995,1730 345,1286 -405,2610 -1680,2981 586,600 1046,1304 1370,2071 456,-17 908,94 1312,327l0 0c1170,675 1571,2172 895,3341 -407,703 -1127,1149 -1920,1214 -519,1873 -1720,3505 -3322,4533 286,324 477,716 562,1130 115,565 32,1172 -279,1711l0 0c-337,585 -880,977 -1485,1139 -1243,334 -2534,-358 -2948,-1574 -135,-398 -168,-829 -87,-1251 -527,-27 -1053,-117 -1566,-273zm-1977 -991c-288,804 -379,1414 -307,1778 22,107 52,173 88,195 31,18 92,12 183,-22 326,-119 777,-505 1332,-1208 -462,-199 -891,-445 -1296,-743zm4255 1263c-95,343 -80,702 31,1029 298,875 1220,1367 2113,1127 432,-115 824,-398 1065,-816 404,-704 275,-1583 -300,-2138 -905,467 -1897,744 -2909,798zm813 1982l0 0m6000 -11852c48,159 91,320 129,483 219,956 247,1970 69,2978 983,-208 1591,-1197 1330,-2169 -116,-434 -397,-823 -816,-1065l0 0c-221,-128 -464,-204 -712,-227zm-13104 6134c-420,-875 -651,-1832 -693,-2806 -365,-138 -756,-146 -1114,-41 -911,269 -1443,1216 -1197,2136 243,905 1156,1460 2071,1258 354,-78 683,-266 933,-547zm2036 -9061c909,-785 1976,-1336 3104,-1611 -41,-67 -86,-131 -137,-192 -126,-154 -280,-289 -460,-396 -15,-8 -30,-16 -44,-26 -413,-230 -880,-274 -1305,-160 -427,114 -810,388 -1053,797 -8,15 -17,30 -27,44 -165,298 -234,625 -217,944 11,207 58,410 139,600zm10521 3565c-370,-1615 -1342,-3043 -2830,-3902l1 -1c-1488,-858 -3211,-986 -4794,-499 -1584,488 -3028,1589 -3961,3189 -9,18 -19,36 -31,53 -919,1609 -1151,3410 -781,5025 371,1620 1340,3038 2830,3902 1487,859 3210,987 4794,500 1592,-490 3044,-1600 3976,-3215 932,-1615 1168,-3428 796,-5052z"></path>
</svg>
